<svg width="560" height="24" viewBox="0 0 560 24" fill="none" xmlns="http://www.w3.org/2000/svg">
<line y1="11.5" x2="261" y2="11.5" stroke="#0D606F" stroke-opacity="0.5"/>
<line x1="299" y1="11.5" x2="560" y2="11.5" stroke="#0D606F" stroke-opacity="0.5"/>
<path d="M275.4 7.58C276.133 7.58 276.827 7.70667 277.48 7.96C278.12 8.21333 278.653 8.56 279.08 9C279.507 9.44 279.84 9.99333 280.08 10.66C280.32 11.3133 280.44 12.04 280.44 12.84C280.44 13.64 280.32 14.3733 280.08 15.04C279.827 15.72 279.493 16.28 279.08 16.72C278.64 17.1867 278.107 17.54 277.48 17.78C276.867 18.02 276.173 18.14 275.4 18.14C274.627 18.14 273.927 18.02 273.3 17.78C272.673 17.54 272.14 17.1867 271.7 16.72C271.233 16.24 270.887 15.68 270.66 15.04C270.42 14.3733 270.3 13.64 270.3 12.84C270.3 12.04 270.42 11.3133 270.66 10.66C270.887 10.0467 271.233 9.49333 271.7 9C272.127 8.56 272.66 8.21333 273.3 7.96C273.953 7.70667 274.653 7.58 275.4 7.58ZM275.4 16.24C276.253 16.24 276.88 15.9533 277.28 15.38C277.693 14.78 277.9 13.94 277.9 12.86C277.9 11.78 277.693 10.94 277.28 10.34C276.88 9.75333 276.253 9.46 275.4 9.46C274.547 9.46 273.907 9.75333 273.48 10.34C273.053 10.9267 272.84 11.7733 272.84 12.88C272.84 13.96 273.053 14.7933 273.48 15.38C273.893 15.9533 274.533 16.24 275.4 16.24ZM287.942 7.56C288.462 7.56 288.882 7.67333 289.202 7.9L288.882 9.76C288.868 9.88 288.828 9.96 288.762 10C288.682 10.0533 288.588 10.08 288.482 10.08C288.388 10.08 288.255 10.06 288.082 10.02C287.842 9.96667 287.608 9.94 287.382 9.94C286.862 9.94 286.422 10.08 286.062 10.36C285.728 10.6133 285.422 11.0333 285.142 11.62V16.02L286.142 16.2C286.475 16.28 286.642 16.4867 286.642 16.82V18H281.162V16.82C281.162 16.4867 281.328 16.28 281.662 16.2L282.662 16.02V9.72L281.662 9.54C281.328 9.46 281.162 9.25333 281.162 8.92V7.74H284.122C284.375 7.74 284.548 7.78667 284.642 7.88C284.735 7.97333 284.802 8.13333 284.842 8.36L285.002 9.6C285.362 8.94667 285.788 8.44667 286.282 8.1C286.788 7.74 287.342 7.56 287.942 7.56Z" fill="#0D606F" fill-opacity="0.5"/>
</svg>
